<?xml version="1.0" encoding="utf-8" standalone="no"?>
<!DOCTYPE svg PUBLIC "-//W3C//DTD SVG 1.1//EN"
  "http://www.w3.org/Graphics/SVG/1.1/DTD/svg11.dtd">
<!-- Created with matplotlib (https://matplotlib.org/) -->
<svg height="578.88pt" version="1.1" viewBox="0 0 1141.92 578.88" width="1141.92pt" xmlns="http://www.w3.org/2000/svg" xmlns:xlink="http://www.w3.org/1999/xlink">
 <metadata>
  <rdf:RDF xmlns:cc="http://creativecommons.org/ns#" xmlns:dc="http://purl.org/dc/elements/1.1/" xmlns:rdf="http://www.w3.org/1999/02/22-rdf-syntax-ns#">
   <cc:Work>
    <dc:type rdf:resource="http://purl.org/dc/dcmitype/StillImage"/>
    <dc:date>2020-10-13T17:34:35.389895</dc:date>
    <dc:format>image/svg+xml</dc:format>
    <dc:creator>
     <cc:Agent>
      <dc:title>Matplotlib v3.3.2, https://matplotlib.org/</dc:title>
     </cc:Agent>
    </dc:creator>
   </cc:Work>
  </rdf:RDF>
 </metadata>
 <defs>
  <style type="text/css">*{stroke-linecap:butt;stroke-linejoin:round;}</style>
 </defs>
 <g id="figure_1">
  <g id="patch_1">
   <path d="M 0 578.88 
L 1141.92 578.88 
L 1141.92 0 
L 0 0 
z
" style="fill:#ffffff;"/>
  </g>
  <g id="patch_2">
   <path d="M 281.52 578.88 
L 860.4 578.88 
L 860.4 0 
L 281.52 0 
z
" style="fill:#ffffff;"/>
  </g>
  <g id="pane3d_1">
   <g id="patch_3">
    <path d="M 325.229432 436.146744 
L 516.394514 275.908382 
L 513.737136 44.816019 
L 313.42382 190.995553 
" style="fill:#f2f2f2;opacity:0.5;stroke:#f2f2f2;stroke-linejoin:miter;"/>
   </g>
  </g>
  <g id="pane3d_2">
   <g id="patch_4">
    <path d="M 516.394514 275.908382 
L 823.146261 365.069004 
L 834.09315 126.01693 
L 513.737136 44.816019 
" style="fill:#e6e6e6;opacity:0.5;stroke:#e6e6e6;stroke-linejoin:miter;"/>
   </g>
  </g>
  <g id="pane3d_3">
   <g id="patch_5">
    <path d="M 325.229432 436.146744 
L 650.401267 542.347864 
L 823.146261 365.069004 
L 516.394514 275.908382 
" style="fill:#ececec;opacity:0.5;stroke:#ececec;stroke-linejoin:miter;"/>
   </g>
  </g>
  <g id="axis3d_1">
   <g id="line2d_1">
    <path d="M 325.229432 436.146744 
L 650.401267 542.347864 
" style="fill:none;stroke:#000000;stroke-linecap:square;stroke-width:0.8;"/>
   </g>
   <g id="text_1">
    <!-- $n$ -->
    <g transform="translate(462.510413 527.100947)scale(0.15 -0.15)">
     <defs>
      <path d="M 55.71875 33.015625 
L 49.3125 0 
L 40.28125 0 
L 46.6875 32.671875 
Q 47.125 34.96875 47.359375 36.71875 
Q 47.609375 38.484375 47.609375 39.5 
Q 47.609375 43.609375 45.015625 45.890625 
Q 42.4375 48.1875 37.796875 48.1875 
Q 30.5625 48.1875 25.34375 43.375 
Q 20.125 38.578125 18.5 30.328125 
L 12.5 0 
L 3.515625 0 
L 14.109375 54.6875 
L 23.09375 54.6875 
L 21.296875 46.09375 
Q 25.046875 50.828125 30.3125 53.40625 
Q 35.59375 56 41.40625 56 
Q 48.640625 56 52.609375 52.09375 
Q 56.59375 48.1875 56.59375 41.109375 
Q 56.59375 39.359375 56.375 37.359375 
Q 56.15625 35.359375 55.71875 33.015625 
z
" id="DejaVuSans-Oblique-110"/>
     </defs>
     <use xlink:href="#DejaVuSans-Oblique-110"/>
    </g>
   </g>
   <g id="Line3DCollection_1">
    <path d="M 344.923545 442.578841 
L 535.050216 281.330858 
L 533.181615 49.744628 
" style="fill:none;stroke:#b0b0b0;stroke-width:0.8;"/>
    <path d="M 405.748541 462.444284 
L 592.605034 298.059771 
L 593.20134 64.957879 
" style="fill:none;stroke:#b0b0b0;stroke-width:0.8;"/>
    <path d="M 467.814316 482.714967 
L 651.235904 315.101451 
L 654.392083 80.467948 
" style="fill:none;stroke:#b0b0b0;stroke-width:0.8;"/>
    <path d="M 531.159229 503.403415 
L 710.973287 332.464749 
L 716.788452 96.283609 
" style="fill:none;stroke:#b0b0b0;stroke-width:0.8;"/>
    <path d="M 595.823233 524.522679 
L 771.848806 350.158859 
L 780.426433 112.413982 
" style="fill:none;stroke:#b0b0b0;stroke-width:0.8;"/>
   </g>
   <g id="xtick_1">
    <g id="line2d_2">
     <path d="M 346.579157 441.174702 
L 341.605216 445.393143 
" style="fill:none;stroke:#000000;stroke-linecap:square;stroke-width:0.8;"/>
    </g>
    <g id="text_2">
     <!-- 0 -->
     <g transform="translate(334.228336 465.856499)scale(0.1 -0.1)">
      <defs>
       <path d="M 31.78125 66.40625 
Q 24.171875 66.40625 20.328125 58.90625 
Q 16.5 51.421875 16.5 36.375 
Q 16.5 21.390625 20.328125 13.890625 
Q 24.171875 6.390625 31.78125 6.390625 
Q 39.453125 6.390625 43.28125 13.890625 
Q 47.125 21.390625 47.125 36.375 
Q 47.125 51.421875 43.28125 58.90625 
Q 39.453125 66.40625 31.78125 66.40625 
z
M 31.78125 74.21875 
Q 44.046875 74.21875 50.515625 64.515625 
Q 56.984375 54.828125 56.984375 36.375 
Q 56.984375 17.96875 50.515625 8.265625 
Q 44.046875 -1.421875 31.78125 -1.421875 
Q 19.53125 -1.421875 13.0625 8.265625 
Q 6.59375 17.96875 6.59375 36.375 
Q 6.59375 54.828125 13.0625 64.515625 
Q 19.53125 74.21875 31.78125 74.21875 
z
" id="DejaVuSans-48"/>
      </defs>
      <use xlink:href="#DejaVuSans-48"/>
     </g>
    </g>
   </g>
   <g id="xtick_2">
    <g id="line2d_3">
     <path d="M 407.377011 461.011659 
L 402.484541 465.315745 
" style="fill:none;stroke:#000000;stroke-linecap:square;stroke-width:0.8;"/>
    </g>
    <g id="text_3">
     <!-- 2 -->
     <g transform="translate(395.082117 485.914744)scale(0.1 -0.1)">
      <defs>
       <path d="M 19.1875 8.296875 
L 53.609375 8.296875 
L 53.609375 0 
L 7.328125 0 
L 7.328125 8.296875 
Q 12.9375 14.109375 22.625 23.890625 
Q 32.328125 33.6875 34.8125 36.53125 
Q 39.546875 41.84375 41.421875 45.53125 
Q 43.3125 49.21875 43.3125 52.78125 
Q 43.3125 58.59375 39.234375 62.25 
Q 35.15625 65.921875 28.609375 65.921875 
Q 23.96875 65.921875 18.8125 64.3125 
Q 13.671875 62.703125 7.8125 59.421875 
L 7.8125 69.390625 
Q 13.765625 71.78125 18.9375 73 
Q 24.125 74.21875 28.421875 74.21875 
Q 39.75 74.21875 46.484375 68.546875 
Q 53.21875 62.890625 53.21875 53.421875 
Q 53.21875 48.921875 51.53125 44.890625 
Q 49.859375 40.875 45.40625 35.40625 
Q 44.1875 33.984375 37.640625 27.21875 
Q 31.109375 20.453125 19.1875 8.296875 
z
" id="DejaVuSans-50"/>
      </defs>
      <use xlink:href="#DejaVuSans-50"/>
     </g>
    </g>
   </g>
   <g id="xtick_3">
    <g id="line2d_4">
     <path d="M 469.414188 481.252979 
L 464.607567 485.645344 
" style="fill:none;stroke:#000000;stroke-linecap:square;stroke-width:0.8;"/>
    </g>
    <g id="text_4">
     <!-- 4 -->
     <g transform="translate(457.179424 506.382872)scale(0.1 -0.1)">
      <defs>
       <path d="M 37.796875 64.3125 
L 12.890625 25.390625 
L 37.796875 25.390625 
z
M 35.203125 72.90625 
L 47.609375 72.90625 
L 47.609375 25.390625 
L 58.015625 25.390625 
L 58.015625 17.1875 
L 47.609375 17.1875 
L 47.609375 0 
L 37.796875 0 
L 37.796875 17.1875 
L 4.890625 17.1875 
L 4.890625 26.703125 
z
" id="DejaVuSans-52"/>
      </defs>
      <use xlink:href="#DejaVuSans-52"/>
     </g>
    </g>
   </g>
   <g id="xtick_4">
    <g id="line2d_5">
     <path d="M 532.728972 501.911152 
L 528.012798 506.394542 
" style="fill:none;stroke:#000000;stroke-linecap:square;stroke-width:0.8;"/>
    </g>
    <g id="text_5">
     <!-- 6 -->
     <g transform="translate(520.558768 527.273577)scale(0.1 -0.1)">
      <defs>
       <path d="M 33.015625 40.375 
Q 26.375 40.375 22.484375 35.828125 
Q 18.609375 31.296875 18.609375 23.390625 
Q 18.609375 15.53125 22.484375 10.953125 
Q 26.375 6.390625 33.015625 6.390625 
Q 39.65625 6.390625 43.53125 10.953125 
Q 47.40625 15.53125 47.40625 23.390625 
Q 47.40625 31.296875 43.53125 35.828125 
Q 39.65625 40.375 33.015625 40.375 
z
M 52.59375 71.296875 
L 52.59375 62.3125 
Q 48.875 64.0625 45.09375 64.984375 
Q 41.3125 65.921875 37.59375 65.921875 
Q 27.828125 65.921875 22.671875 59.328125 
Q 17.53125 52.734375 16.796875 39.40625 
Q 19.671875 43.65625 24.015625 45.921875 
Q 28.375 48.1875 33.59375 48.1875 
Q 44.578125 48.1875 50.953125 41.515625 
Q 57.328125 34.859375 57.328125 23.390625 
Q 57.328125 12.15625 50.6875 5.359375 
Q 44.046875 -1.421875 33.015625 -1.421875 
Q 20.359375 -1.421875 13.671875 8.265625 
Q 6.984375 17.96875 6.984375 36.375 
Q 6.984375 53.65625 15.1875 63.9375 
Q 23.390625 74.21875 37.203125 74.21875 
Q 40.921875 74.21875 44.703125 73.484375 
Q 48.484375 72.75 52.59375 71.296875 
z
" id="DejaVuSans-54"/>
      </defs>
      <use xlink:href="#DejaVuSans-54"/>
     </g>
    </g>
   </g>
   <g id="xtick_5">
    <g id="line2d_6">
     <path d="M 597.36124 522.999191 
L 592.740344 527.576464 
" style="fill:none;stroke:#000000;stroke-linecap:square;stroke-width:0.8;"/>
    </g>
    <g id="text_6">
     <!-- 8 -->
     <g transform="translate(585.260266 548.600082)scale(0.1 -0.1)">
      <defs>
       <path d="M 31.78125 34.625 
Q 24.75 34.625 20.71875 30.859375 
Q 16.703125 27.09375 16.703125 20.515625 
Q 16.703125 13.921875 20.71875 10.15625 
Q 24.75 6.390625 31.78125 6.390625 
Q 38.8125 6.390625 42.859375 10.171875 
Q 46.921875 13.96875 46.921875 20.515625 
Q 46.921875 27.09375 42.890625 30.859375 
Q 38.875 34.625 31.78125 34.625 
z
M 21.921875 38.8125 
Q 15.578125 40.375 12.03125 44.71875 
Q 8.5 49.078125 8.5 55.328125 
Q 8.5 64.0625 14.71875 69.140625 
Q 20.953125 74.21875 31.78125 74.21875 
Q 42.671875 74.21875 48.875 69.140625 
Q 55.078125 64.0625 55.078125 55.328125 
Q 55.078125 49.078125 51.53125 44.71875 
Q 48 40.375 41.703125 38.8125 
Q 48.828125 37.15625 52.796875 32.3125 
Q 56.78125 27.484375 56.78125 20.515625 
Q 56.78125 9.90625 50.3125 4.234375 
Q 43.84375 -1.421875 31.78125 -1.421875 
Q 19.734375 -1.421875 13.25 4.234375 
Q 6.78125 9.90625 6.78125 20.515625 
Q 6.78125 27.484375 10.78125 32.3125 
Q 14.796875 37.15625 21.921875 38.8125 
z
M 18.3125 54.390625 
Q 18.3125 48.734375 21.84375 45.5625 
Q 25.390625 42.390625 31.78125 42.390625 
Q 38.140625 42.390625 41.71875 45.5625 
Q 45.3125 48.734375 45.3125 54.390625 
Q 45.3125 60.0625 41.71875 63.234375 
Q 38.140625 66.40625 31.78125 66.40625 
Q 25.390625 66.40625 21.84375 63.234375 
Q 18.3125 60.0625 18.3125 54.390625 
z
" id="DejaVuSans-56"/>
      </defs>
      <use xlink:href="#DejaVuSans-56"/>
     </g>
    </g>
   </g>
  </g>
  <g id="axis3d_2">
   <g id="line2d_7">
    <path d="M 823.146261 365.069004 
L 650.401267 542.347864 
" style="fill:none;stroke:#000000;stroke-linecap:square;stroke-width:0.8;"/>
   </g>
   <g id="text_7">
    <!-- $z$ -->
    <g transform="translate(763.61905 481.870011)scale(0.15 -0.15)">
     <defs>
      <path d="M 11.625 54.6875 
L 54.296875 54.6875 
L 52.6875 46.484375 
L 11.53125 7.171875 
L 45.515625 7.171875 
L 44.09375 0 
L -0.296875 0 
L 1.3125 8.203125 
L 42.484375 47.515625 
L 10.203125 47.515625 
z
" id="DejaVuSans-Oblique-122"/>
     </defs>
     <use transform="translate(0 0.3125)" xlink:href="#DejaVuSans-Oblique-122"/>
    </g>
   </g>
   <g id="Line3DCollection_2">
    <path d="M 327.275982 180.886877 
L 338.402322 425.104966 
L 662.353884 530.081539 
" style="fill:none;stroke:#b0b0b0;stroke-width:0.8;"/>
    <path d="M 350.646638 163.832036 
L 360.642607 406.462718 
L 682.517408 509.388803 
" style="fill:none;stroke:#b0b0b0;stroke-width:0.8;"/>
    <path d="M 373.554605 147.114845 
L 382.461693 388.173527 
L 702.278917 489.108633 
" style="fill:none;stroke:#b0b0b0;stroke-width:0.8;"/>
    <path d="M 396.01349 130.725374 
L 403.871433 370.227459 
L 721.650315 469.228813 
" style="fill:none;stroke:#b0b0b0;stroke-width:0.8;"/>
    <path d="M 418.03637 114.654079 
L 424.883239 352.614947 
L 740.64304 449.737605 
" style="fill:none;stroke:#b0b0b0;stroke-width:0.8;"/>
    <path d="M 439.63582 98.891785 
L 445.508103 335.326777 
L 759.268089 430.623723 
" style="fill:none;stroke:#b0b0b0;stroke-width:0.8;"/>
    <path d="M 460.823934 83.429664 
L 465.756617 318.354071 
L 777.536035 411.876316 
" style="fill:none;stroke:#b0b0b0;stroke-width:0.8;"/>
    <path d="M 481.612352 68.259223 
L 485.638988 301.688273 
L 795.457052 393.484944 
" style="fill:none;stroke:#b0b0b0;stroke-width:0.8;"/>
    <path d="M 502.012279 53.372286 
L 505.165058 285.321134 
L 813.040929 375.43956 
" style="fill:none;stroke:#b0b0b0;stroke-width:0.8;"/>
   </g>
   <g id="xtick_6">
    <g id="line2d_8">
     <path d="M 659.623934 529.196898 
L 667.820843 531.853108 
" style="fill:none;stroke:#000000;stroke-linecap:square;stroke-width:0.8;"/>
    </g>
    <g id="text_8">
     <!-- −8 -->
     <g transform="translate(667.859258 551.098928)scale(0.1 -0.1)">
      <defs>
       <path d="M 10.59375 35.5 
L 73.1875 35.5 
L 73.1875 27.203125 
L 10.59375 27.203125 
z
" id="DejaVuSans-8722"/>
      </defs>
      <use xlink:href="#DejaVuSans-8722"/>
      <use x="83.789062" xlink:href="#DejaVuSans-56"/>
     </g>
    </g>
   </g>
   <g id="xtick_7">
    <g id="line2d_9">
     <path d="M 679.806343 508.521884 
L 687.946479 511.12486 
" style="fill:none;stroke:#000000;stroke-linecap:square;stroke-width:0.8;"/>
    </g>
    <g id="text_9">
     <!-- −6 -->
     <g transform="translate(687.898583 530.265399)scale(0.1 -0.1)">
      <use xlink:href="#DejaVuSans-8722"/>
      <use x="83.789062" xlink:href="#DejaVuSans-54"/>
     </g>
    </g>
   </g>
   <g id="xtick_8">
    <g id="line2d_10">
     <path d="M 699.58653 488.258909 
L 707.670516 490.810235 
" style="fill:none;stroke:#000000;stroke-linecap:square;stroke-width:0.8;"/>
    </g>
    <g id="text_10">
     <!-- −4 -->
     <g transform="translate(707.538262 509.847356)scale(0.1 -0.1)">
      <use xlink:href="#DejaVuSans-8722"/>
      <use x="83.789062" xlink:href="#DejaVuSans-52"/>
     </g>
    </g>
   </g>
   <g id="xtick_9">
    <g id="line2d_11">
     <path d="M 718.976399 468.395777 
L 727.004856 470.896976 
" style="fill:none;stroke:#000000;stroke-linecap:square;stroke-width:0.8;"/>
    </g>
    <g id="text_11">
     <!-- −2 -->
     <g transform="translate(726.79013 489.832493)scale(0.1 -0.1)">
      <use xlink:href="#DejaVuSans-8722"/>
      <use x="83.789062" xlink:href="#DejaVuSans-50"/>
     </g>
    </g>
   </g>
   <g id="xtick_10">
    <g id="line2d_12">
     <path d="M 737.987392 448.92077 
L 745.960935 451.373304 
" style="fill:none;stroke:#000000;stroke-linecap:square;stroke-width:0.8;"/>
    </g>
    <g id="text_12">
     <!-- 0 -->
     <g transform="translate(749.855407 470.208984)scale(0.1 -0.1)">
      <use xlink:href="#DejaVuSans-48"/>
     </g>
    </g>
   </g>
   <g id="xtick_11">
    <g id="line2d_13">
     <path d="M 756.630506 429.822622 
L 764.549746 432.227898 
" style="fill:none;stroke:#000000;stroke-linecap:square;stroke-width:0.8;"/>
    </g>
    <g id="text_13">
     <!-- 2 -->
     <g transform="translate(768.365338 450.965462)scale(0.1 -0.1)">
      <use xlink:href="#DejaVuSans-50"/>
     </g>
    </g>
   </g>
   <g id="xtick_12">
    <g id="line2d_14">
     <path d="M 774.916316 411.090498 
L 782.781859 413.449869 
" style="fill:none;stroke:#000000;stroke-linecap:square;stroke-width:0.8;"/>
    </g>
    <g id="text_14">
     <!-- 4 -->
     <g transform="translate(786.520282 432.090996)scale(0.1 -0.1)">
      <use xlink:href="#DejaVuSans-52"/>
     </g>
    </g>
   </g>
   <g id="xtick_13">
    <g id="line2d_15">
     <path d="M 792.854997 392.713975 
L 800.667445 395.028743 
" style="fill:none;stroke:#000000;stroke-linecap:square;stroke-width:0.8;"/>
    </g>
    <g id="text_15">
     <!-- 6 -->
     <g transform="translate(804.330354 413.575071)scale(0.1 -0.1)">
      <use xlink:href="#DejaVuSans-54"/>
     </g>
    </g>
   </g>
   <g id="xtick_14">
    <g id="line2d_16">
     <path d="M 810.45634 374.683024 
L 818.21629 376.954442 
" style="fill:none;stroke:#000000;stroke-linecap:square;stroke-width:0.8;"/>
    </g>
    <g id="text_16">
     <!-- 8 -->
     <g transform="translate(821.805289 395.407565)scale(0.1 -0.1)">
      <use xlink:href="#DejaVuSans-56"/>
     </g>
    </g>
   </g>
  </g>
  <g id="axis3d_3">
   <g id="line2d_17">
    <path d="M 823.146261 365.069004 
L 834.09315 126.01693 
" style="fill:none;stroke:#000000;stroke-linecap:square;stroke-width:0.8;"/>
   </g>
   <g id="text_17">
    <!-- $\psi_n(z)$ -->
    <g transform="translate(872.304437 261.202294)rotate(-87.378092)scale(0.15 -0.15)">
     <defs>
      <path d="M 24.859375 -1.21875 
Q 13.921875 0.59375 9.625 5.328125 
Q 4.34375 11.140625 6.640625 23 
L 12.796875 54.6875 
L 21.875 54.6875 
L 15.765625 23.34375 
Q 14.0625 14.40625 17.484375 10.6875 
Q 20.515625 7.46875 26.421875 6.78125 
L 35.6875 54.6875 
L 44.625 54.6875 
L 35.359375 6.84375 
Q 41.890625 7.515625 45.75 10.75 
Q 50.734375 14.84375 52.390625 23.390625 
L 58.453125 54.6875 
L 67.53125 54.6875 
L 61.375 23.046875 
Q 58.984375 10.75 51.5625 5.375 
Q 44.875 0.53125 33.796875 -1.171875 
L 29.984375 -20.796875 
L 21.046875 -20.796875 
z
" id="DejaVuSans-Oblique-968"/>
      <path d="M 31 75.875 
Q 24.46875 64.65625 21.28125 53.65625 
Q 18.109375 42.671875 18.109375 31.390625 
Q 18.109375 20.125 21.3125 9.0625 
Q 24.515625 -2 31 -13.1875 
L 23.1875 -13.1875 
Q 15.875 -1.703125 12.234375 9.375 
Q 8.59375 20.453125 8.59375 31.390625 
Q 8.59375 42.28125 12.203125 53.3125 
Q 15.828125 64.359375 23.1875 75.875 
z
" id="DejaVuSans-40"/>
      <path d="M 8.015625 75.875 
L 15.828125 75.875 
Q 23.140625 64.359375 26.78125 53.3125 
Q 30.421875 42.28125 30.421875 31.390625 
Q 30.421875 20.453125 26.78125 9.375 
Q 23.140625 -1.703125 15.828125 -13.1875 
L 8.015625 -13.1875 
Q 14.5 -2 17.703125 9.0625 
Q 20.90625 20.125 20.90625 31.390625 
Q 20.90625 42.671875 17.703125 53.65625 
Q 14.5 64.65625 8.015625 75.875 
z
" id="DejaVuSans-41"/>
     </defs>
     <use transform="translate(0 0.125)" xlink:href="#DejaVuSans-Oblique-968"/>
     <use transform="translate(65.966797 -16.28125)scale(0.7)" xlink:href="#DejaVuSans-Oblique-110"/>
     <use transform="translate(113.066406 0.125)" xlink:href="#DejaVuSans-40"/>
     <use transform="translate(152.080078 0.125)" xlink:href="#DejaVuSans-Oblique-122"/>
     <use transform="translate(204.570312 0.125)" xlink:href="#DejaVuSans-41"/>
    </g>
   </g>
   <g id="Line3DCollection_3">
    <path d="M 823.941947 347.69325 
L 516.200981 259.078276 
L 324.372669 418.35551 
" style="fill:none;stroke:#b0b0b0;stroke-width:0.8;"/>
    <path d="M 825.312348 317.767192 
L 515.867801 230.104096 
L 322.896585 387.703657 
" style="fill:none;stroke:#b0b0b0;stroke-width:0.8;"/>
    <path d="M 826.698156 287.504689 
L 515.531054 200.819753 
L 321.403272 356.694046 
" style="fill:none;stroke:#b0b0b0;stroke-width:0.8;"/>
    <path d="M 828.099632 256.900035 
L 515.190683 171.220239 
L 319.892427 325.320375 
" style="fill:none;stroke:#b0b0b0;stroke-width:0.8;"/>
    <path d="M 829.517043 225.947396 
L 514.84663 141.300439 
L 318.36374 293.576195 
" style="fill:none;stroke:#b0b0b0;stroke-width:0.8;"/>
    <path d="M 830.950663 194.640802 
L 514.498833 111.055125 
L 316.816892 261.454905 
" style="fill:none;stroke:#b0b0b0;stroke-width:0.8;"/>
    <path d="M 832.400771 162.974147 
L 514.147231 80.478958 
L 315.251559 228.949743 
" style="fill:none;stroke:#b0b0b0;stroke-width:0.8;"/>
   </g>
   <g id="xtick_15">
    <g id="line2d_18">
     <path d="M 821.358759 346.949413 
L 829.114487 349.182699 
" style="fill:none;stroke:#000000;stroke-linecap:square;stroke-width:0.8;"/>
    </g>
    <g id="text_18">
     <!-- −0.75 -->
     <g transform="translate(826.955872 352.698045)scale(0.1 -0.1)">
      <defs>
       <path d="M 10.6875 12.40625 
L 21 12.40625 
L 21 0 
L 10.6875 0 
z
" id="DejaVuSans-46"/>
       <path d="M 8.203125 72.90625 
L 55.078125 72.90625 
L 55.078125 68.703125 
L 28.609375 0 
L 18.3125 0 
L 43.21875 64.59375 
L 8.203125 64.59375 
z
" id="DejaVuSans-55"/>
       <path d="M 10.796875 72.90625 
L 49.515625 72.90625 
L 49.515625 64.59375 
L 19.828125 64.59375 
L 19.828125 46.734375 
Q 21.96875 47.46875 24.109375 47.828125 
Q 26.265625 48.1875 28.421875 48.1875 
Q 40.625 48.1875 47.75 41.5 
Q 54.890625 34.8125 54.890625 23.390625 
Q 54.890625 11.625 47.5625 5.09375 
Q 40.234375 -1.421875 26.90625 -1.421875 
Q 22.3125 -1.421875 17.546875 -0.640625 
Q 12.796875 0.140625 7.71875 1.703125 
L 7.71875 11.625 
Q 12.109375 9.234375 16.796875 8.0625 
Q 21.484375 6.890625 26.703125 6.890625 
Q 35.15625 6.890625 40.078125 11.328125 
Q 45.015625 15.765625 45.015625 23.390625 
Q 45.015625 31 40.078125 35.4375 
Q 35.15625 39.890625 26.703125 39.890625 
Q 22.75 39.890625 18.8125 39.015625 
Q 14.890625 38.140625 10.796875 36.28125 
z
" id="DejaVuSans-53"/>
      </defs>
      <use xlink:href="#DejaVuSans-8722"/>
      <use x="83.789062" xlink:href="#DejaVuSans-48"/>
      <use x="147.412109" xlink:href="#DejaVuSans-46"/>
      <use x="179.199219" xlink:href="#DejaVuSans-55"/>
      <use x="242.822266" xlink:href="#DejaVuSans-53"/>
     </g>
    </g>
   </g>
   <g id="xtick_16">
    <g id="line2d_19">
     <path d="M 822.714179 317.031152 
L 830.51492 319.241038 
" style="fill:none;stroke:#000000;stroke-linecap:square;stroke-width:0.8;"/>
    </g>
    <g id="text_19">
     <!-- −0.50 -->
     <g transform="translate(828.42672 322.799188)scale(0.1 -0.1)">
      <use xlink:href="#DejaVuSans-8722"/>
      <use x="83.789062" xlink:href="#DejaVuSans-48"/>
      <use x="147.412109" xlink:href="#DejaVuSans-46"/>
      <use x="179.199219" xlink:href="#DejaVuSans-53"/>
      <use x="242.822266" xlink:href="#DejaVuSans-48"/>
     </g>
    </g>
   </g>
   <g id="xtick_17">
    <g id="line2d_20">
     <path d="M 824.084831 286.776669 
L 831.931112 288.962485 
" style="fill:none;stroke:#000000;stroke-linecap:square;stroke-width:0.8;"/>
    </g>
    <g id="text_20">
     <!-- −0.25 -->
     <g transform="translate(829.914082 292.564663)scale(0.1 -0.1)">
      <use xlink:href="#DejaVuSans-8722"/>
      <use x="83.789062" xlink:href="#DejaVuSans-48"/>
      <use x="147.412109" xlink:href="#DejaVuSans-46"/>
      <use x="179.199219" xlink:href="#DejaVuSans-50"/>
      <use x="242.822266" xlink:href="#DejaVuSans-53"/>
     </g>
    </g>
   </g>
   <g id="xtick_18">
    <g id="line2d_21">
     <path d="M 825.470974 256.180264 
L 833.363327 258.341325 
" style="fill:none;stroke:#000000;stroke-linecap:square;stroke-width:0.8;"/>
    </g>
    <g id="text_21">
     <!-- 0.00 -->
     <g transform="translate(835.608079 261.988785)scale(0.1 -0.1)">
      <use xlink:href="#DejaVuSans-48"/>
      <use x="63.623047" xlink:href="#DejaVuSans-46"/>
      <use x="95.410156" xlink:href="#DejaVuSans-48"/>
      <use x="159.033203" xlink:href="#DejaVuSans-48"/>
     </g>
    </g>
   </g>
   <g id="xtick_19">
    <g id="line2d_22">
     <path d="M 826.872871 225.236109 
L 834.811841 227.371707 
" style="fill:none;stroke:#000000;stroke-linecap:square;stroke-width:0.8;"/>
    </g>
    <g id="text_22">
     <!-- 0.25 -->
     <g transform="translate(837.129311 231.065742)scale(0.1 -0.1)">
      <use xlink:href="#DejaVuSans-48"/>
      <use x="63.623047" xlink:href="#DejaVuSans-46"/>
      <use x="95.410156" xlink:href="#DejaVuSans-50"/>
      <use x="159.033203" xlink:href="#DejaVuSans-53"/>
     </g>
    </g>
   </g>
   <g id="xtick_20">
    <g id="line2d_23">
     <path d="M 828.290793 193.93824 
L 836.276932 196.047651 
" style="fill:none;stroke:#000000;stroke-linecap:square;stroke-width:0.8;"/>
    </g>
    <g id="text_23">
     <!-- 0.50 -->
     <g transform="translate(838.667915 199.789585)scale(0.1 -0.1)">
      <use xlink:href="#DejaVuSans-48"/>
      <use x="63.623047" xlink:href="#DejaVuSans-46"/>
      <use x="95.410156" xlink:href="#DejaVuSans-53"/>
      <use x="159.033203" xlink:href="#DejaVuSans-48"/>
     </g>
    </g>
   </g>
   <g id="xtick_21">
    <g id="line2d_24">
     <path d="M 829.725016 162.280559 
L 837.758888 164.363036 
" style="fill:none;stroke:#000000;stroke-linecap:square;stroke-width:0.8;"/>
    </g>
    <g id="text_24">
     <!-- 0.75 -->
     <g transform="translate(840.224188 168.154233)scale(0.1 -0.1)">
      <use xlink:href="#DejaVuSans-48"/>
      <use x="63.623047" xlink:href="#DejaVuSans-46"/>
      <use x="95.410156" xlink:href="#DejaVuSans-55"/>
      <use x="159.033203" xlink:href="#DejaVuSans-53"/>
     </g>
    </g>
   </g>
  </g>
  <g id="axes_1">
   <g id="line2d_25">
    <path clip-path="url(#p10946e849b)" d="M 353.392845 320.810187 
L 401.556908 282.21106 
L 405.062167 279.120162 
L 407.848774 276.33561 
L 409.923583 273.898461 
L 411.296985 272.016957 
L 412.660459 269.855619 
L 414.011901 267.337626 
L 415.348971 264.375712 
L 416.669185 260.874719 
L 417.970051 256.735862 
L 419.249251 251.862869 
L 420.504871 246.169972 
L 421.735662 239.59148 
L 422.941316 232.092417 
L 424.122734 223.679363 
L 425.854948 209.489284 
L 428.114869 188.421462 
L 430.942089 161.517814 
L 432.694142 147.127722 
L 433.904507 139.034602 
L 435.157695 132.531045 
L 435.802174 129.961354 
L 436.459259 127.882245 
L 437.12926 126.313295 
L 437.812316 125.267681 
L 438.508391 124.751889 
L 439.217274 124.76557 
L 439.938585 125.301546 
L 440.671783 126.345971 
L 441.416177 127.878641 
L 442.170944 129.873436 
L 443.707728 135.11887 
L 445.273562 141.779051 
L 446.859007 149.501354 
L 450.050782 166.636212 
L 453.995462 187.689977 
L 456.303862 198.56543 
L 457.812341 204.762789 
L 459.295616 210.044699 
L 460.754291 214.406891 
L 462.189842 217.886121 
L 463.604344 220.549308 
L 465.000207 222.482943 
L 466.379962 223.783583 
L 467.746085 224.549947 
L 469.100878 224.876875 
L 470.446387 224.851149 
L 471.784367 224.54902 
L 473.116274 224.035162 
L 475.105241 222.980649 
L 477.744852 221.24306 
L 481.685619 218.299626 
L 490.818222 211.06993 
L 522.816342 185.519607 
L 522.816342 185.519607 
" style="fill:none;stroke:#1f77b4;stroke-linecap:square;stroke-opacity:0.6;stroke-width:3;"/>
   </g>
   <g id="line2d_26">
    <path clip-path="url(#p10946e849b)" d="M 384.158987 330.223302 
L 427.030917 295.489186 
L 430.539185 292.95776 
L 432.645132 291.681405 
L 434.051444 291.008536 
L 435.461223 290.542815 
L 436.876212 290.356712 
L 438.298499 290.538947 
L 439.013119 290.800272 
L 439.730485 291.193968 
L 440.450931 291.735103 
L 441.174796 292.439238 
L 441.902416 293.322167 
L 442.634119 294.399607 
L 444.110972 297.198197 
L 445.607385 300.943508 
L 447.124521 305.712974 
L 448.662253 311.533827 
L 450.218746 318.362934 
L 452.579522 330.179432 
L 458.067239 359.285218 
L 459.57841 365.718435 
L 460.316388 368.235855 
L 461.040513 370.180542 
L 461.749322 371.475797 
L 462.441492 372.049588 
L 463.115876 371.836285 
L 463.771533 370.778375 
L 464.407764 368.828107 
L 465.024131 365.949018 
L 465.620484 362.117321 
L 466.196976 357.323082 
L 467.292567 344.881977 
L 468.318461 328.852586 
L 469.287092 309.71377 
L 470.670062 276.794981 
L 473.441173 208.125091 
L 474.441486 188.305818 
L 475.506867 171.559711 
L 476.646249 158.497407 
L 477.244926 153.462468 
L 477.862873 149.449506 
L 478.499631 146.45423 
L 479.154436 144.455201 
L 479.826251 143.415168 
L 480.513813 143.282756 
L 481.215669 143.994458 
L 481.930225 145.476807 
L 482.655791 147.648684 
L 483.390627 150.423633 
L 484.88114 157.423817 
L 486.38832 165.762202 
L 492.376142 200.523422 
L 493.83105 207.536044 
L 495.264083 213.478734 
L 496.67567 218.326952 
L 498.067268 222.124365 
L 499.440963 224.961348 
L 500.79914 226.955616 
L 502.144229 228.236209 
L 503.478518 228.93133 
L 504.804049 229.159987 
L 506.122556 229.027031 
L 507.43546 228.620935 
L 508.743883 228.01362 
L 510.699934 226.845328 
L 513.298615 225.00483 
L 517.826995 221.465687 
L 533.839564 208.467961 
L 552.117144 193.600355 
L 552.117144 193.600355 
" style="fill:none;stroke:#ff7f0e;stroke-linecap:square;stroke-opacity:0.6;stroke-width:3;"/>
   </g>
   <g id="line2d_27">
    <path clip-path="url(#p10946e849b)" d="M 415.240541 339.73292 
L 454.254496 307.278185 
L 457.728356 304.118433 
L 459.802852 302.011944 
L 461.867047 299.600405 
L 463.235675 297.731495 
L 464.596702 295.568645 
L 465.948504 293.022898 
L 467.289304 289.99335 
L 468.617292 286.372394 
L 469.930809 282.054586 
L 471.228606 276.949604 
L 472.510154 270.999322 
L 473.776 264.198293 
L 475.650125 252.579555 
L 480.002454 223.529245 
L 481.27876 216.830937 
L 481.928807 214.132426 
L 482.588489 211.977654 
L 483.258974 210.445622 
L 483.941287 209.609479 
L 484.636273 209.533844 
L 485.34455 210.272105 
L 486.066479 211.863837 
L 486.802129 214.332424 
L 487.551255 217.683028 
L 488.313281 221.900989 
L 489.872076 232.775575 
L 491.467424 246.418527 
L 493.894135 270.133376 
L 497.091995 301.61258 
L 498.632005 314.411143 
L 499.380316 319.558813 
L 500.112228 323.711086 
L 500.826713 326.771254 
L 501.52311 328.664821 
L 502.201137 329.341337 
L 502.860893 328.775645 
L 503.502852 326.96849 
L 504.127847 323.946495 
L 504.737043 319.761505 
L 505.331905 314.489301 
L 506.485742 301.094199 
L 507.605411 284.761179 
L 511.506474 222.386294 
L 512.676659 207.956674 
L 513.887994 196.6038 
L 514.509841 192.206158 
L 515.142344 188.685802 
L 515.785107 186.036466 
L 516.437538 184.233853 
L 517.098877 183.2377 
L 517.768233 182.994154 
L 518.444624 183.438364 
L 519.127007 184.497163 
L 519.814317 186.091737 
L 520.505494 188.140188 
L 521.895394 193.269683 
L 523.98569 202.384736 
L 526.754893 214.532416 
L 528.124616 219.818786 
L 529.482665 224.327341 
L 530.82903 227.991686 
L 532.164391 230.819179 
L 533.489846 232.868788 
L 534.806686 234.230824 
L 536.116231 235.010117 
L 537.419708 235.313284 
L 538.718194 235.24005 
L 540.012585 234.878162 
L 541.303596 234.301139 
L 543.234933 233.157832 
L 545.802225 231.325813 
L 550.277547 227.771732 
L 565.47596 215.202697 
L 581.696109 201.757817 
L 581.696109 201.757817 
" style="fill:none;stroke:#2ca02c;stroke-linecap:square;stroke-opacity:0.6;stroke-width:3;"/>
   </g>
   <g id="line2d_28">
    <path clip-path="url(#p10946e849b)" d="M 446.642384 349.340533 
L 483.929136 317.976029 
L 487.387277 315.379285 
L 489.460621 314.060985 
L 490.843247 313.352903 
L 492.22697 312.837473 
L 493.612574 312.573232 
L 495.00089 312.625926 
L 496.392729 313.064121 
L 497.788765 313.951961 
L 499.189387 315.338814 
L 500.594531 317.245991 
L 502.003489 319.651446 
L 503.414754 322.474152 
L 507.633663 331.510815 
L 509.021388 333.680896 
L 509.709098 334.386293 
L 510.391923 334.766975 
L 511.069328 334.770661 
L 511.740842 334.348249 
L 512.406082 333.455662 
L 513.064771 332.055745 
L 513.716759 330.120178 
L 514.362036 327.631317 
L 515.000749 324.583896 
L 516.259893 316.8628 
L 517.498714 307.210453 
L 519.334936 290.288606 
L 521.793161 267.544814 
L 523.049448 258.326824 
L 523.688166 254.676837 
L 524.334927 251.797293 
L 524.990186 249.763426 
L 525.65414 248.627749 
L 526.326716 248.417352 
L 527.00757 249.132089 
L 527.696096 250.743797 
L 528.391446 253.196595 
L 529.09256 256.408276 
L 530.507013 264.663418 
L 532.6379 279.510269 
L 534.048021 289.209333 
L 535.438419 297.315074 
L 536.124013 300.443931 
L 536.802444 302.820038 
L 537.473421 304.369177 
L 538.136877 305.041919 
L 538.792956 304.814403 
L 539.442 303.688281 
L 540.084525 301.689877 
L 540.7212 298.868595 
L 541.352809 295.294677 
L 542.604386 286.256732 
L 544.466743 269.663694 
L 546.957739 246.968638 
L 548.217682 237.312696 
L 549.490406 229.57785 
L 550.131638 226.528736 
L 550.775958 224.045231 
L 551.423143 222.123695 
L 552.072909 220.7472 
L 552.724925 219.887286 
L 553.378829 219.505935 
L 554.034246 219.557652 
L 554.690796 219.991564 
L 555.348111 220.753451 
L 556.005845 221.787647 
L 557.321319 224.453101 
L 559.945581 230.792282 
L 561.903323 235.232203 
L 563.202665 237.685512 
L 564.497438 239.634764 
L 565.787965 241.06284 
L 567.074675 241.99484 
L 568.358023 242.482588 
L 569.638438 242.591499 
L 570.91629 242.390508 
L 572.191882 241.94515 
L 574.101522 240.943257 
L 576.007118 239.675596 
L 579.174901 237.250001 
L 585.481357 232.019911 
L 611.557218 209.993089 
L 611.557218 209.993089 
" style="fill:none;stroke:#d62728;stroke-linecap:square;stroke-opacity:0.6;stroke-width:3;"/>
   </g>
   <g id="line2d_29">
    <path clip-path="url(#p10946e849b)" d="M 478.369492 359.047662 
L 513.934835 328.270596 
L 517.356431 325.034454 
L 520.082714 322.139474 
L 522.11979 319.64533 
L 524.149324 316.739824 
L 526.17061 313.301061 
L 528.183529 309.25029 
L 530.189032 304.614588 
L 535.524304 291.695956 
L 536.862997 289.314892 
L 537.534143 288.414621 
L 538.206689 287.747545 
L 538.880743 287.340037 
L 539.556368 287.214197 
L 540.233576 287.386525 
L 540.912324 287.866648 
L 541.592509 288.656157 
L 542.273966 289.747635 
L 542.95647 291.123935 
L 544.323435 294.611663 
L 546.373206 300.977245 
L 548.412157 307.160315 
L 549.08755 308.836608 
L 549.760282 310.199385 
L 550.430132 311.184109 
L 551.096956 311.735549 
L 551.760698 311.810338 
L 552.421392 311.379214 
L 553.079162 310.42884 
L 553.734216 308.963104 
L 554.386845 307.003791 
L 555.686302 301.780383 
L 556.980929 295.272818 
L 559.570134 281.41999 
L 560.870604 275.737552 
L 561.523071 273.531461 
L 562.177092 271.837644 
L 562.832607 270.699233 
L 563.489476 270.138097 
L 564.147488 270.153872 
L 564.806375 270.723991 
L 565.465832 271.80469 
L 566.125525 273.332963 
L 567.444288 277.401271 
L 570.724898 288.755429 
L 571.376936 290.421485 
L 572.027542 291.690899 
L 572.676796 292.507623 
L 573.324823 292.832772 
L 573.97178 292.645308 
L 574.617852 291.942001 
L 575.263231 290.736724 
L 575.908113 289.059127 
L 577.197121 284.473042 
L 578.486119 278.657245 
L 583.003783 256.848099 
L 584.294838 252.181046 
L 585.584504 248.700934 
L 586.228538 247.41802 
L 586.871911 246.429348 
L 587.514547 245.718301 
L 588.156386 245.262785 
L 588.797386 245.036535 
L 589.437525 245.010424 
L 590.076796 245.15369 
L 591.352785 245.823795 
L 593.26089 247.350201 
L 595.163103 248.92633 
L 596.428675 249.782596 
L 597.692625 250.396852 
L 598.955235 250.740088 
L 600.216695 250.813179 
L 601.47711 250.637186 
L 602.736515 250.244694 
L 604.623679 249.331384 
L 606.508339 248.13538 
L 609.016918 246.269912 
L 613.393804 242.667056 
L 626.415815 231.481025 
L 641.704527 218.307292 
L 641.704527 218.307292 
" style="fill:none;stroke:#9467bd;stroke-linecap:square;stroke-opacity:0.6;stroke-width:3;"/>
   </g>
   <g id="line2d_30">
    <path clip-path="url(#p10946e849b)" d="M 510.426945 368.855863 
L 544.973031 338.614358 
L 549.045925 335.370887 
L 551.753719 333.512334 
L 553.780863 332.375256 
L 555.80482 331.515687 
L 557.825344 330.946894 
L 560.513098 330.521989 
L 562.523178 330.209535 
L 563.860031 329.832812 
L 565.194104 329.185654 
L 566.525328 328.147257 
L 567.853785 326.611902 
L 569.179724 324.51008 
L 570.50355 321.829908 
L 571.825775 318.634615 
L 574.467488 311.366617 
L 576.447677 306.177444 
L 577.767253 303.407503 
L 578.426731 302.33014 
L 579.085901 301.490406 
L 579.744674 300.903098 
L 580.402956 300.573883 
L 581.060656 300.498483 
L 581.717688 300.662308 
L 582.373984 301.040552 
L 583.684188 302.294082 
L 586.295335 305.387343 
L 586.94659 305.955751 
L 587.597466 306.335837 
L 588.248108 306.484914 
L 588.898663 306.369906 
L 589.549269 305.969068 
L 590.200051 305.273209 
L 590.851105 304.286335 
L 591.502498 303.025661 
L 592.806354 299.813494 
L 597.370303 286.994931 
L 598.019841 285.738715 
L 598.668129 284.757851 
L 599.315003 284.069498 
L 599.960345 283.67738 
L 600.60409 283.571819 
L 601.246227 283.730432 
L 601.886809 284.11944 
L 603.163794 285.407953 
L 605.707001 288.495489 
L 606.34211 289.05316 
L 606.97749 289.431868 
L 607.613383 289.598237 
L 608.249995 289.528413 
L 608.887486 289.20857 
L 609.525967 288.634945 
L 610.165492 287.813427 
L 611.447627 285.493411 
L 612.733276 282.450805 
L 615.309475 275.337476 
L 617.238832 270.236923 
L 618.520597 267.362416 
L 619.797433 265.04251 
L 621.068772 263.30098 
L 622.334564 262.094473 
L 623.595185 261.332577 
L 624.851311 260.899736 
L 626.728891 260.605647 
L 629.847171 260.247818 
L 631.714692 259.779578 
L 633.580803 259.029974 
L 635.445657 258.013552 
L 637.929699 256.3324 
L 641.029408 253.899515 
L 645.972721 249.685022 
L 666.721083 231.466921 
L 672.14217 226.701564 
L 672.14217 226.701564 
" style="fill:none;stroke:#8c564b;stroke-linecap:square;stroke-opacity:0.6;stroke-width:3;"/>
   </g>
   <g id="line2d_31">
    <path clip-path="url(#p10946e849b)" d="M 542.819929 378.766722 
L 577.02097 347.959191 
L 581.051373 344.058616 
L 584.398798 340.534882 
L 587.73669 336.689784 
L 593.057697 330.411746 
L 595.045673 328.446357 
L 596.368121 327.390998 
L 597.687959 326.580913 
L 599.004982 326.023587 
L 600.31912 325.691849 
L 602.939456 325.40284 
L 604.246591 325.211854 
L 605.552651 324.807106 
L 606.858447 324.064122 
L 608.164688 322.898989 
L 609.471804 321.290559 
L 610.779796 319.293449 
L 616.003698 310.675618 
L 617.301145 309.309075 
L 618.593153 308.472153 
L 619.879786 308.107312 
L 621.161946 308.057456 
L 623.08045 308.070387 
L 624.359247 307.78345 
L 624.999295 307.475893 
L 625.640013 307.037642 
L 626.923846 305.747024 
L 628.210858 303.941651 
L 630.145028 300.595747 
L 632.077512 297.173471 
L 633.360998 295.24019 
L 634.638407 293.777635 
L 635.908819 292.841798 
L 637.172415 292.38237 
L 638.430417 292.258782 
L 640.937953 292.2157 
L 642.192055 291.899315 
L 643.44883 291.197256 
L 644.709194 290.056529 
L 645.973182 288.499096 
L 647.874108 285.576472 
L 652.306041 278.26592 
L 654.192632 275.758259 
L 655.444376 274.39664 
L 657.313363 272.766912 
L 659.173598 271.494586 
L 667.183054 266.541264 
L 670.252762 264.172933 
L 674.539641 260.536371 
L 684.276242 251.861268 
L 702.874361 235.177069 
L 702.874361 235.177069 
" style="fill:none;stroke:#e377c2;stroke-linecap:square;stroke-width:3;"/>
   </g>
   <g id="line2d_32">
    <path clip-path="url(#p10946e849b)" d="M 575.553739 388.781859 
L 610.731735 356.709553 
L 616.036198 352.228758 
L 623.938613 345.751468 
L 626.562247 343.2072 
L 629.182912 340.283565 
L 635.711108 332.662 
L 637.656128 330.939216 
L 639.593106 329.597224 
L 644.092592 326.848363 
L 645.377373 325.797298 
L 646.66316 324.533603 
L 648.593477 322.284779 
L 652.447756 317.533906 
L 653.725782 316.23169 
L 654.998999 315.160892 
L 656.900374 313.925794 
L 660.057105 312.09937 
L 661.32011 311.144847 
L 662.584924 309.966438 
L 664.485429 307.807793 
L 668.913765 302.388949 
L 670.797073 300.61757 
L 672.669151 299.293328 
L 677.634745 296.216639 
L 679.49909 294.564659 
L 681.366873 292.548067 
L 688.818741 283.851781 
L 691.279372 281.549972 
L 694.339258 279.026303 
L 701.034309 273.601888 
L 706.485964 268.808382 
L 719.695586 256.750801 
L 733.905397 243.734991 
L 733.905397 243.734991 
" style="fill:none;stroke:#7f7f7f;stroke-linecap:square;stroke-opacity:0.01;stroke-width:3;"/>
   </g>
   <g id="line2d_33">
    <path clip-path="url(#p10946e849b)" d="M 608.633784 398.90293 
L 644.752414 364.973066 
L 656.515216 353.707325 
L 660.39958 350.404023 
L 664.911355 346.591608 
L 667.484554 344.150771 
L 671.979476 339.454698 
L 674.537109 336.90423 
L 677.082795 334.663186 
L 682.782292 329.85072 
L 685.313111 327.288991 
L 689.72934 322.707535 
L 692.236197 320.48825 
L 697.224583 316.335606 
L 699.717724 313.876211 
L 705.310541 308.116652 
L 707.776906 305.964491 
L 713.298447 301.326448 
L 716.363395 298.314774 
L 723.688804 290.827936 
L 727.92508 286.934498 
L 738.728832 277.155358 
L 759.995884 257.282811 
L 765.239658 252.376538 
L 765.239658 252.376538 
" style="fill:none;stroke:#bcbd22;stroke-linecap:square;stroke-opacity:0.01;stroke-width:3;"/>
   </g>
   <g id="line2d_34">
    <path clip-path="url(#p10946e849b)" d="M 642.065585 409.131622 
L 796.88161 261.102942 
L 796.88161 261.102942 
" style="fill:none;stroke:#17becf;stroke-linecap:square;stroke-opacity:0.01;stroke-width:3;"/>
   </g>
   <g id="text_25">
    <!-- Résolution de l'équation de Schrödinger pour différentes             précisions -->
    <g transform="translate(346.101563 -6)scale(0.12 -0.12)">
     <defs>
      <path d="M 44.390625 34.1875 
Q 47.5625 33.109375 50.5625 29.59375 
Q 53.5625 26.078125 56.59375 19.921875 
L 66.609375 0 
L 56 0 
L 46.6875 18.703125 
Q 43.0625 26.03125 39.671875 28.421875 
Q 36.28125 30.8125 30.421875 30.8125 
L 19.671875 30.8125 
L 19.671875 0 
L 9.8125 0 
L 9.8125 72.90625 
L 32.078125 72.90625 
Q 44.578125 72.90625 50.734375 67.671875 
Q 56.890625 62.453125 56.890625 51.90625 
Q 56.890625 45.015625 53.6875 40.46875 
Q 50.484375 35.9375 44.390625 34.1875 
z
M 19.671875 64.796875 
L 19.671875 38.921875 
L 32.078125 38.921875 
Q 39.203125 38.921875 42.84375 42.21875 
Q 46.484375 45.515625 46.484375 51.90625 
Q 46.484375 58.296875 42.84375 61.546875 
Q 39.203125 64.796875 32.078125 64.796875 
z
" id="DejaVuSans-82"/>
      <path d="M 56.203125 29.59375 
L 56.203125 25.203125 
L 14.890625 25.203125 
Q 15.484375 15.921875 20.484375 11.0625 
Q 25.484375 6.203125 34.421875 6.203125 
Q 39.59375 6.203125 44.453125 7.46875 
Q 49.3125 8.734375 54.109375 11.28125 
L 54.109375 2.78125 
Q 49.265625 0.734375 44.1875 -0.34375 
Q 39.109375 -1.421875 33.890625 -1.421875 
Q 20.796875 -1.421875 13.15625 6.1875 
Q 5.515625 13.8125 5.515625 26.8125 
Q 5.515625 40.234375 12.765625 48.109375 
Q 20.015625 56 32.328125 56 
Q 43.359375 56 49.78125 48.890625 
Q 56.203125 41.796875 56.203125 29.59375 
z
M 47.21875 32.234375 
Q 47.125 39.59375 43.09375 43.984375 
Q 39.0625 48.390625 32.421875 48.390625 
Q 24.90625 48.390625 20.390625 44.140625 
Q 15.875 39.890625 15.1875 32.171875 
z
M 38.578125 79.984375 
L 48.296875 79.984375 
L 32.375 61.625 
L 24.90625 61.625 
z
" id="DejaVuSans-233"/>
      <path d="M 44.28125 53.078125 
L 44.28125 44.578125 
Q 40.484375 46.53125 36.375 47.5 
Q 32.28125 48.484375 27.875 48.484375 
Q 21.1875 48.484375 17.84375 46.4375 
Q 14.5 44.390625 14.5 40.28125 
Q 14.5 37.15625 16.890625 35.375 
Q 19.28125 33.59375 26.515625 31.984375 
L 29.59375 31.296875 
Q 39.15625 29.25 43.1875 25.515625 
Q 47.21875 21.78125 47.21875 15.09375 
Q 47.21875 7.46875 41.1875 3.015625 
Q 35.15625 -1.421875 24.609375 -1.421875 
Q 20.21875 -1.421875 15.453125 -0.5625 
Q 10.6875 0.296875 5.421875 2 
L 5.421875 11.28125 
Q 10.40625 8.6875 15.234375 7.390625 
Q 20.0625 6.109375 24.8125 6.109375 
Q 31.15625 6.109375 34.5625 8.28125 
Q 37.984375 10.453125 37.984375 14.40625 
Q 37.984375 18.0625 35.515625 20.015625 
Q 33.0625 21.96875 24.703125 23.78125 
L 21.578125 24.515625 
Q 13.234375 26.265625 9.515625 29.90625 
Q 5.8125 33.546875 5.8125 39.890625 
Q 5.8125 47.609375 11.28125 51.796875 
Q 16.75 56 26.8125 56 
Q 31.78125 56 36.171875 55.265625 
Q 40.578125 54.546875 44.28125 53.078125 
z
" id="DejaVuSans-115"/>
      <path d="M 30.609375 48.390625 
Q 23.390625 48.390625 19.1875 42.75 
Q 14.984375 37.109375 14.984375 27.296875 
Q 14.984375 17.484375 19.15625 11.84375 
Q 23.34375 6.203125 30.609375 6.203125 
Q 37.796875 6.203125 41.984375 11.859375 
Q 46.1875 17.53125 46.1875 27.296875 
Q 46.1875 37.015625 41.984375 42.703125 
Q 37.796875 48.390625 30.609375 48.390625 
z
M 30.609375 56 
Q 42.328125 56 49.015625 48.375 
Q 55.71875 40.765625 55.71875 27.296875 
Q 55.71875 13.875 49.015625 6.21875 
Q 42.328125 -1.421875 30.609375 -1.421875 
Q 18.84375 -1.421875 12.171875 6.21875 
Q 5.515625 13.875 5.515625 27.296875 
Q 5.515625 40.765625 12.171875 48.375 
Q 18.84375 56 30.609375 56 
z
" id="DejaVuSans-111"/>
      <path d="M 9.421875 75.984375 
L 18.40625 75.984375 
L 18.40625 0 
L 9.421875 0 
z
" id="DejaVuSans-108"/>
      <path d="M 8.5 21.578125 
L 8.5 54.6875 
L 17.484375 54.6875 
L 17.484375 21.921875 
Q 17.484375 14.15625 20.5 10.265625 
Q 23.53125 6.390625 29.59375 6.390625 
Q 36.859375 6.390625 41.078125 11.03125 
Q 45.3125 15.671875 45.3125 23.6875 
L 45.3125 54.6875 
L 54.296875 54.6875 
L 54.296875 0 
L 45.3125 0 
L 45.3125 8.40625 
Q 42.046875 3.421875 37.71875 1 
Q 33.40625 -1.421875 27.6875 -1.421875 
Q 18.265625 -1.421875 13.375 4.4375 
Q 8.5 10.296875 8.5 21.578125 
z
M 31.109375 56 
z
" id="DejaVuSans-117"/>
      <path d="M 18.3125 70.21875 
L 18.3125 54.6875 
L 36.8125 54.6875 
L 36.8125 47.703125 
L 18.3125 47.703125 
L 18.3125 18.015625 
Q 18.3125 11.328125 20.140625 9.421875 
Q 21.96875 7.515625 27.59375 7.515625 
L 36.8125 7.515625 
L 36.8125 0 
L 27.59375 0 
Q 17.1875 0 13.234375 3.875 
Q 9.28125 7.765625 9.28125 18.015625 
L 9.28125 47.703125 
L 2.6875 47.703125 
L 2.6875 54.6875 
L 9.28125 54.6875 
L 9.28125 70.21875 
z
" id="DejaVuSans-116"/>
      <path d="M 9.421875 54.6875 
L 18.40625 54.6875 
L 18.40625 0 
L 9.421875 0 
z
M 9.421875 75.984375 
L 18.40625 75.984375 
L 18.40625 64.59375 
L 9.421875 64.59375 
z
" id="DejaVuSans-105"/>
      <path d="M 54.890625 33.015625 
L 54.890625 0 
L 45.90625 0 
L 45.90625 32.71875 
Q 45.90625 40.484375 42.875 44.328125 
Q 39.84375 48.1875 33.796875 48.1875 
Q 26.515625 48.1875 22.3125 43.546875 
Q 18.109375 38.921875 18.109375 30.90625 
L 18.109375 0 
L 9.078125 0 
L 9.078125 54.6875 
L 18.109375 54.6875 
L 18.109375 46.1875 
Q 21.34375 51.125 25.703125 53.5625 
Q 30.078125 56 35.796875 56 
Q 45.21875 56 50.046875 50.171875 
Q 54.890625 44.34375 54.890625 33.015625 
z
" id="DejaVuSans-110"/>
      <path id="DejaVuSans-32"/>
      <path d="M 45.40625 46.390625 
L 45.40625 75.984375 
L 54.390625 75.984375 
L 54.390625 0 
L 45.40625 0 
L 45.40625 8.203125 
Q 42.578125 3.328125 38.25 0.953125 
Q 33.9375 -1.421875 27.875 -1.421875 
Q 17.96875 -1.421875 11.734375 6.484375 
Q 5.515625 14.40625 5.515625 27.296875 
Q 5.515625 40.1875 11.734375 48.09375 
Q 17.96875 56 27.875 56 
Q 33.9375 56 38.25 53.625 
Q 42.578125 51.265625 45.40625 46.390625 
z
M 14.796875 27.296875 
Q 14.796875 17.390625 18.875 11.75 
Q 22.953125 6.109375 30.078125 6.109375 
Q 37.203125 6.109375 41.296875 11.75 
Q 45.40625 17.390625 45.40625 27.296875 
Q 45.40625 37.203125 41.296875 42.84375 
Q 37.203125 48.484375 30.078125 48.484375 
Q 22.953125 48.484375 18.875 42.84375 
Q 14.796875 37.203125 14.796875 27.296875 
z
" id="DejaVuSans-100"/>
      <path d="M 56.203125 29.59375 
L 56.203125 25.203125 
L 14.890625 25.203125 
Q 15.484375 15.921875 20.484375 11.0625 
Q 25.484375 6.203125 34.421875 6.203125 
Q 39.59375 6.203125 44.453125 7.46875 
Q 49.3125 8.734375 54.109375 11.28125 
L 54.109375 2.78125 
Q 49.265625 0.734375 44.1875 -0.34375 
Q 39.109375 -1.421875 33.890625 -1.421875 
Q 20.796875 -1.421875 13.15625 6.1875 
Q 5.515625 13.8125 5.515625 26.8125 
Q 5.515625 40.234375 12.765625 48.109375 
Q 20.015625 56 32.328125 56 
Q 43.359375 56 49.78125 48.890625 
Q 56.203125 41.796875 56.203125 29.59375 
z
M 47.21875 32.234375 
Q 47.125 39.59375 43.09375 43.984375 
Q 39.0625 48.390625 32.421875 48.390625 
Q 24.90625 48.390625 20.390625 44.140625 
Q 15.875 39.890625 15.1875 32.171875 
z
" id="DejaVuSans-101"/>
      <path d="M 17.921875 72.90625 
L 17.921875 45.796875 
L 9.625 45.796875 
L 9.625 72.90625 
z
" id="DejaVuSans-39"/>
      <path d="M 14.796875 27.296875 
Q 14.796875 17.390625 18.875 11.75 
Q 22.953125 6.109375 30.078125 6.109375 
Q 37.203125 6.109375 41.296875 11.75 
Q 45.40625 17.390625 45.40625 27.296875 
Q 45.40625 37.203125 41.296875 42.84375 
Q 37.203125 48.484375 30.078125 48.484375 
Q 22.953125 48.484375 18.875 42.84375 
Q 14.796875 37.203125 14.796875 27.296875 
z
M 45.40625 8.203125 
Q 42.578125 3.328125 38.25 0.953125 
Q 33.9375 -1.421875 27.875 -1.421875 
Q 17.96875 -1.421875 11.734375 6.484375 
Q 5.515625 14.40625 5.515625 27.296875 
Q 5.515625 40.1875 11.734375 48.09375 
Q 17.96875 56 27.875 56 
Q 33.9375 56 38.25 53.625 
Q 42.578125 51.265625 45.40625 46.390625 
L 45.40625 54.6875 
L 54.390625 54.6875 
L 54.390625 -20.796875 
L 45.40625 -20.796875 
z
" id="DejaVuSans-113"/>
      <path d="M 34.28125 27.484375 
Q 23.390625 27.484375 19.1875 25 
Q 14.984375 22.515625 14.984375 16.5 
Q 14.984375 11.71875 18.140625 8.90625 
Q 21.296875 6.109375 26.703125 6.109375 
Q 34.1875 6.109375 38.703125 11.40625 
Q 43.21875 16.703125 43.21875 25.484375 
L 43.21875 27.484375 
z
M 52.203125 31.203125 
L 52.203125 0 
L 43.21875 0 
L 43.21875 8.296875 
Q 40.140625 3.328125 35.546875 0.953125 
Q 30.953125 -1.421875 24.3125 -1.421875 
Q 15.921875 -1.421875 10.953125 3.296875 
Q 6 8.015625 6 15.921875 
Q 6 25.140625 12.171875 29.828125 
Q 18.359375 34.515625 30.609375 34.515625 
L 43.21875 34.515625 
L 43.21875 35.40625 
Q 43.21875 41.609375 39.140625 45 
Q 35.0625 48.390625 27.6875 48.390625 
Q 23 48.390625 18.546875 47.265625 
Q 14.109375 46.140625 10.015625 43.890625 
L 10.015625 52.203125 
Q 14.9375 54.109375 19.578125 55.046875 
Q 24.21875 56 28.609375 56 
Q 40.484375 56 46.34375 49.84375 
Q 52.203125 43.703125 52.203125 31.203125 
z
" id="DejaVuSans-97"/>
      <path d="M 53.515625 70.515625 
L 53.515625 60.890625 
Q 47.90625 63.578125 42.921875 64.890625 
Q 37.9375 66.21875 33.296875 66.21875 
Q 25.25 66.21875 20.875 63.09375 
Q 16.5 59.96875 16.5 54.203125 
Q 16.5 49.359375 19.40625 46.890625 
Q 22.3125 44.4375 30.421875 42.921875 
L 36.375 41.703125 
Q 47.40625 39.59375 52.65625 34.296875 
Q 57.90625 29 57.90625 20.125 
Q 57.90625 9.515625 50.796875 4.046875 
Q 43.703125 -1.421875 29.984375 -1.421875 
Q 24.8125 -1.421875 18.96875 -0.25 
Q 13.140625 0.921875 6.890625 3.21875 
L 6.890625 13.375 
Q 12.890625 10.015625 18.65625 8.296875 
Q 24.421875 6.59375 29.984375 6.59375 
Q 38.421875 6.59375 43.015625 9.90625 
Q 47.609375 13.234375 47.609375 19.390625 
Q 47.609375 24.75 44.3125 27.78125 
Q 41.015625 30.8125 33.5 32.328125 
L 27.484375 33.5 
Q 16.453125 35.6875 11.515625 40.375 
Q 6.59375 45.0625 6.59375 53.421875 
Q 6.59375 63.09375 13.40625 68.65625 
Q 20.21875 74.21875 32.171875 74.21875 
Q 37.3125 74.21875 42.625 73.28125 
Q 47.953125 72.359375 53.515625 70.515625 
z
" id="DejaVuSans-83"/>
      <path d="M 48.78125 52.59375 
L 48.78125 44.1875 
Q 44.96875 46.296875 41.140625 47.34375 
Q 37.3125 48.390625 33.40625 48.390625 
Q 24.65625 48.390625 19.8125 42.84375 
Q 14.984375 37.3125 14.984375 27.296875 
Q 14.984375 17.28125 19.8125 11.734375 
Q 24.65625 6.203125 33.40625 6.203125 
Q 37.3125 6.203125 41.140625 7.25 
Q 44.96875 8.296875 48.78125 10.40625 
L 48.78125 2.09375 
Q 45.015625 0.34375 40.984375 -0.53125 
Q 36.96875 -1.421875 32.421875 -1.421875 
Q 20.0625 -1.421875 12.78125 6.34375 
Q 5.515625 14.109375 5.515625 27.296875 
Q 5.515625 40.671875 12.859375 48.328125 
Q 20.21875 56 33.015625 56 
Q 37.15625 56 41.109375 55.140625 
Q 45.0625 54.296875 48.78125 52.59375 
z
" id="DejaVuSans-99"/>
      <path d="M 54.890625 33.015625 
L 54.890625 0 
L 45.90625 0 
L 45.90625 32.71875 
Q 45.90625 40.484375 42.875 44.328125 
Q 39.84375 48.1875 33.796875 48.1875 
Q 26.515625 48.1875 22.3125 43.546875 
Q 18.109375 38.921875 18.109375 30.90625 
L 18.109375 0 
L 9.078125 0 
L 9.078125 75.984375 
L 18.109375 75.984375 
L 18.109375 46.1875 
Q 21.34375 51.125 25.703125 53.5625 
Q 30.078125 56 35.796875 56 
Q 45.21875 56 50.046875 50.171875 
Q 54.890625 44.34375 54.890625 33.015625 
z
" id="DejaVuSans-104"/>
      <path d="M 41.109375 46.296875 
Q 39.59375 47.171875 37.8125 47.578125 
Q 36.03125 48 33.890625 48 
Q 26.265625 48 22.1875 43.046875 
Q 18.109375 38.09375 18.109375 28.8125 
L 18.109375 0 
L 9.078125 0 
L 9.078125 54.6875 
L 18.109375 54.6875 
L 18.109375 46.1875 
Q 20.953125 51.171875 25.484375 53.578125 
Q 30.03125 56 36.53125 56 
Q 37.453125 56 38.578125 55.875 
Q 39.703125 55.765625 41.0625 55.515625 
z
" id="DejaVuSans-114"/>
      <path d="M 30.609375 48.390625 
Q 23.390625 48.390625 19.1875 42.75 
Q 14.984375 37.109375 14.984375 27.296875 
Q 14.984375 17.484375 19.15625 11.84375 
Q 23.34375 6.203125 30.609375 6.203125 
Q 37.796875 6.203125 41.984375 11.859375 
Q 46.1875 17.53125 46.1875 27.296875 
Q 46.1875 37.015625 41.984375 42.703125 
Q 37.796875 48.390625 30.609375 48.390625 
z
M 30.609375 56 
Q 42.328125 56 49.015625 48.375 
Q 55.71875 40.765625 55.71875 27.296875 
Q 55.71875 13.875 49.015625 6.21875 
Q 42.328125 -1.421875 30.609375 -1.421875 
Q 18.84375 -1.421875 12.171875 6.21875 
Q 5.515625 13.875 5.515625 27.296875 
Q 5.515625 40.765625 12.171875 48.375 
Q 18.84375 56 30.609375 56 
z
M 35.203125 75.78125 
L 45.125 75.78125 
L 45.125 65.921875 
L 35.203125 65.921875 
z
M 16.109375 75.78125 
L 26.03125 75.78125 
L 26.03125 65.921875 
L 16.109375 65.921875 
z
" id="DejaVuSans-246"/>
      <path d="M 45.40625 27.984375 
Q 45.40625 37.75 41.375 43.109375 
Q 37.359375 48.484375 30.078125 48.484375 
Q 22.859375 48.484375 18.828125 43.109375 
Q 14.796875 37.75 14.796875 27.984375 
Q 14.796875 18.265625 18.828125 12.890625 
Q 22.859375 7.515625 30.078125 7.515625 
Q 37.359375 7.515625 41.375 12.890625 
Q 45.40625 18.265625 45.40625 27.984375 
z
M 54.390625 6.78125 
Q 54.390625 -7.171875 48.1875 -13.984375 
Q 42 -20.796875 29.203125 -20.796875 
Q 24.46875 -20.796875 20.265625 -20.09375 
Q 16.0625 -19.390625 12.109375 -17.921875 
L 12.109375 -9.1875 
Q 16.0625 -11.328125 19.921875 -12.34375 
Q 23.78125 -13.375 27.78125 -13.375 
Q 36.625 -13.375 41.015625 -8.765625 
Q 45.40625 -4.15625 45.40625 5.171875 
L 45.40625 9.625 
Q 42.625 4.78125 38.28125 2.390625 
Q 33.9375 0 27.875 0 
Q 17.828125 0 11.671875 7.65625 
Q 5.515625 15.328125 5.515625 27.984375 
Q 5.515625 40.671875 11.671875 48.328125 
Q 17.828125 56 27.875 56 
Q 33.9375 56 38.28125 53.609375 
Q 42.625 51.21875 45.40625 46.390625 
L 45.40625 54.6875 
L 54.390625 54.6875 
z
" id="DejaVuSans-103"/>
      <path d="M 18.109375 8.203125 
L 18.109375 -20.796875 
L 9.078125 -20.796875 
L 9.078125 54.6875 
L 18.109375 54.6875 
L 18.109375 46.390625 
Q 20.953125 51.265625 25.265625 53.625 
Q 29.59375 56 35.59375 56 
Q 45.5625 56 51.78125 48.09375 
Q 58.015625 40.1875 58.015625 27.296875 
Q 58.015625 14.40625 51.78125 6.484375 
Q 45.5625 -1.421875 35.59375 -1.421875 
Q 29.59375 -1.421875 25.265625 0.953125 
Q 20.953125 3.328125 18.109375 8.203125 
z
M 48.6875 27.296875 
Q 48.6875 37.203125 44.609375 42.84375 
Q 40.53125 48.484375 33.40625 48.484375 
Q 26.265625 48.484375 22.1875 42.84375 
Q 18.109375 37.203125 18.109375 27.296875 
Q 18.109375 17.390625 22.1875 11.75 
Q 26.265625 6.109375 33.40625 6.109375 
Q 40.53125 6.109375 44.609375 11.75 
Q 48.6875 17.390625 48.6875 27.296875 
z
" id="DejaVuSans-112"/>
      <path d="M 37.109375 75.984375 
L 37.109375 68.5 
L 28.515625 68.5 
Q 23.6875 68.5 21.796875 66.546875 
Q 19.921875 64.59375 19.921875 59.515625 
L 19.921875 54.6875 
L 34.71875 54.6875 
L 34.71875 47.703125 
L 19.921875 47.703125 
L 19.921875 0 
L 10.890625 0 
L 10.890625 47.703125 
L 2.296875 47.703125 
L 2.296875 54.6875 
L 10.890625 54.6875 
L 10.890625 58.5 
Q 10.890625 67.625 15.140625 71.796875 
Q 19.390625 75.984375 28.609375 75.984375 
z
" id="DejaVuSans-102"/>
     </defs>
     <use xlink:href="#DejaVuSans-82"/>
     <use x="64.982422" xlink:href="#DejaVuSans-233"/>
     <use x="126.505859" xlink:href="#DejaVuSans-115"/>
     <use x="178.605469" xlink:href="#DejaVuSans-111"/>
     <use x="239.787109" xlink:href="#DejaVuSans-108"/>
     <use x="267.570312" xlink:href="#DejaVuSans-117"/>
     <use x="330.949219" xlink:href="#DejaVuSans-116"/>
     <use x="370.158203" xlink:href="#DejaVuSans-105"/>
     <use x="397.941406" xlink:href="#DejaVuSans-111"/>
     <use x="459.123047" xlink:href="#DejaVuSans-110"/>
     <use x="522.501953" xlink:href="#DejaVuSans-32"/>
     <use x="554.289062" xlink:href="#DejaVuSans-100"/>
     <use x="617.765625" xlink:href="#DejaVuSans-101"/>
     <use x="679.289062" xlink:href="#DejaVuSans-32"/>
     <use x="711.076172" xlink:href="#DejaVuSans-108"/>
     <use x="738.859375" xlink:href="#DejaVuSans-39"/>
     <use x="766.349609" xlink:href="#DejaVuSans-233"/>
     <use x="827.873047" xlink:href="#DejaVuSans-113"/>
     <use x="891.349609" xlink:href="#DejaVuSans-117"/>
     <use x="954.728516" xlink:href="#DejaVuSans-97"/>
     <use x="1016.007812" xlink:href="#DejaVuSans-116"/>
     <use x="1055.216797" xlink:href="#DejaVuSans-105"/>
     <use x="1083" xlink:href="#DejaVuSans-111"/>
     <use x="1144.181641" xlink:href="#DejaVuSans-110"/>
     <use x="1207.560547" xlink:href="#DejaVuSans-32"/>
     <use x="1239.347656" xlink:href="#DejaVuSans-100"/>
     <use x="1302.824219" xlink:href="#DejaVuSans-101"/>
     <use x="1364.347656" xlink:href="#DejaVuSans-32"/>
     <use x="1396.134766" xlink:href="#DejaVuSans-83"/>
     <use x="1459.611328" xlink:href="#DejaVuSans-99"/>
     <use x="1514.591797" xlink:href="#DejaVuSans-104"/>
     <use x="1577.970703" xlink:href="#DejaVuSans-114"/>
     <use x="1616.833984" xlink:href="#DejaVuSans-246"/>
     <use x="1678.015625" xlink:href="#DejaVuSans-100"/>
     <use x="1741.492188" xlink:href="#DejaVuSans-105"/>
     <use x="1769.275391" xlink:href="#DejaVuSans-110"/>
     <use x="1832.654297" xlink:href="#DejaVuSans-103"/>
     <use x="1896.130859" xlink:href="#DejaVuSans-101"/>
     <use x="1957.654297" xlink:href="#DejaVuSans-114"/>
     <use x="1998.767578" xlink:href="#DejaVuSans-32"/>
     <use x="2030.554688" xlink:href="#DejaVuSans-112"/>
     <use x="2094.03125" xlink:href="#DejaVuSans-111"/>
     <use x="2155.212891" xlink:href="#DejaVuSans-117"/>
     <use x="2218.591797" xlink:href="#DejaVuSans-114"/>
     <use x="2259.705078" xlink:href="#DejaVuSans-32"/>
     <use x="2291.492188" xlink:href="#DejaVuSans-100"/>
     <use x="2354.96875" xlink:href="#DejaVuSans-105"/>
     <use x="2382.751953" xlink:href="#DejaVuSans-102"/>
     <use x="2417.957031" xlink:href="#DejaVuSans-102"/>
     <use x="2453.162109" xlink:href="#DejaVuSans-233"/>
     <use x="2514.685547" xlink:href="#DejaVuSans-114"/>
     <use x="2553.548828" xlink:href="#DejaVuSans-101"/>
     <use x="2615.072266" xlink:href="#DejaVuSans-110"/>
     <use x="2678.451172" xlink:href="#DejaVuSans-116"/>
     <use x="2717.660156" xlink:href="#DejaVuSans-101"/>
     <use x="2779.183594" xlink:href="#DejaVuSans-115"/>
     <use x="2831.283203" xlink:href="#DejaVuSans-32"/>
     <use x="2863.070312" xlink:href="#DejaVuSans-32"/>
     <use x="2894.857422" xlink:href="#DejaVuSans-32"/>
     <use x="2926.644531" xlink:href="#DejaVuSans-32"/>
     <use x="2958.431641" xlink:href="#DejaVuSans-32"/>
     <use x="2990.21875" xlink:href="#DejaVuSans-32"/>
     <use x="3022.005859" xlink:href="#DejaVuSans-32"/>
     <use x="3053.792969" xlink:href="#DejaVuSans-32"/>
     <use x="3085.580078" xlink:href="#DejaVuSans-32"/>
     <use x="3117.367188" xlink:href="#DejaVuSans-32"/>
     <use x="3149.154297" xlink:href="#DejaVuSans-32"/>
     <use x="3180.941406" xlink:href="#DejaVuSans-32"/>
     <use x="3212.728516" xlink:href="#DejaVuSans-32"/>
     <use x="3244.515625" xlink:href="#DejaVuSans-112"/>
     <use x="3307.992188" xlink:href="#DejaVuSans-114"/>
     <use x="3346.855469" xlink:href="#DejaVuSans-233"/>
     <use x="3408.378906" xlink:href="#DejaVuSans-99"/>
     <use x="3463.359375" xlink:href="#DejaVuSans-105"/>
     <use x="3491.142578" xlink:href="#DejaVuSans-115"/>
     <use x="3543.242188" xlink:href="#DejaVuSans-105"/>
     <use x="3571.025391" xlink:href="#DejaVuSans-111"/>
     <use x="3632.207031" xlink:href="#DejaVuSans-110"/>
     <use x="3695.585938" xlink:href="#DejaVuSans-115"/>
    </g>
   </g>
  </g>
 </g>
 <defs>
  <clipPath id="p10946e849b">
   <rect height="578.88" width="578.88" x="281.52" y="0"/>
  </clipPath>
 </defs>
</svg>
